<svg xmlns="http://www.w3.org/2000/svg" data-name="Layer 2" viewBox="0 0 49.15 9.83"><g data-name="Layer 1"><rect width="49.15" height="9.83" fill="#007a54" rx=".79" ry=".79"/><path fill="#fff" d="M6.56 2.33c.95 0 1.43.33 1.43 1 0 .34-.2.66-.5.81.44.12.73.53.7.98 0 .2-.04.41-.13.59a.92.92 0 0 1-.35.38c-.15.09-.32.16-.49.2-.19.04-.38.06-.58.06H4.53V2.33h2.03Zm-.83 1.54h.69c.1 0 .2-.02.28-.08.07-.06.1-.14.1-.22 0-.21-.14-.32-.43-.32h-.64v.62Zm0 1.53h.76c.31 0 .47-.12.47-.37s-.16-.39-.47-.39h-.76v.76Zm4.82.96-.05-.26c-.25.25-.58.38-.93.37a1.2 1.2 0 0 1-.79-.24.86.86 0 0 1-.28-.67c0-.13.03-.27.09-.38.05-.09.11-.18.18-.25.09-.08.2-.13.32-.16l.33-.1.37-.06h.07L10 4.6l.17-.02c.05 0 .1-.02.14-.04a.25.25 0 0 0 .12-.08.23.23 0 0 0 .04-.14c0-.17-.12-.25-.37-.25-.1 0-.2.01-.29.06a.35.35 0 0 0-.12.23H8.64c.02-.66.51-.98 1.46-.98.75 0 1.21.18 1.38.54.06.17.09.35.08.53v1.1c-.02.28.02.57.13.83h-1.14ZM9.96 5.2c-.2.05-.3.15-.3.3 0 .08.03.16.08.21.06.06.15.08.23.08.18.01.35-.07.44-.23a.77.77 0 0 0 .07-.37v-.17c-.16.08-.34.14-.52.17Zm3.26-1.4c.22-.29.57-.45.93-.44.3-.03.6.09.8.32.18.24.26.54.25.84v1.84h-1.12V4.71c0-.31-.13-.46-.38-.46-.29 0-.43.16-.43.49v1.6h-1.12V3.43h1.07v.36Zm5.06 2.39c-.29.17-.62.25-.95.25-.43.02-.85-.12-1.18-.39a1.39 1.39 0 0 1-.47-1.11 1.5 1.5 0 0 1 .45-1.12c.31-.3.73-.46 1.16-.44.44-.02.87.14 1.18.46.3.34.46.78.44 1.23v.08h-2.16c0 .15.05.31.16.42.11.11.26.16.41.15.19 0 .37-.08.47-.24h1.05c-.08.3-.28.56-.55.71Zm-.98-2.11c-.3 0-.48.17-.54.5h1.05a.49.49 0 0 0-.45-.5h-.07Zm3.76.21a.3.3 0 0 0-.11-.21.48.48 0 0 0-.28-.06c-.2 0-.3.06-.3.17 0 .04.02.08.05.11.04.04.09.06.14.08l.16.05.17.03H21l.34.08.3.1c.1.04.19.1.27.16a.8.8 0 0 1 .17.24c.05.11.07.23.07.35 0 .3-.14.59-.39.75-.32.2-.7.29-1.08.27-.93 0-1.42-.35-1.48-1.04h1.06c0 .1.05.19.13.26.09.06.21.09.32.08.09 0 .18-.02.26-.06a.2.2 0 0 0 .09-.17.16.16 0 0 0-.09-.15 1.4 1.4 0 0 0-.35-.1l-.14-.03a4.22 4.22 0 0 1-.77-.22.73.73 0 0 1-.45-.72.76.76 0 0 1 .36-.68c.32-.18.69-.26 1.05-.24.33-.01.67.06.97.21.26.15.42.43.42.73h-1.01Zm4.06 1.8A1.8 1.8 0 0 1 22.93 6a1.4 1.4 0 0 1-.44-1.09c-.02-.42.14-.83.44-1.12a1.6 1.6 0 0 1 1.16-.43c.37-.01.74.1 1.04.32.27.2.43.51.46.85h-1.07a.38.38 0 0 0-.14-.28.42.42 0 0 0-.28-.1c-.33 0-.49.25-.49.76 0 .46.16.69.49.69.25 0 .39-.14.45-.43h1.07c-.04.36-.21.68-.48.91Zm3.58-2.31c.3.29.46.69.44 1.11.02.42-.15.83-.45 1.12-.31.29-.73.45-1.15.43-.43.02-.84-.14-1.16-.43a1.5 1.5 0 0 1-.45-1.11c-.02-.42.15-.82.45-1.11.32-.29.74-.45 1.17-.43.42-.02.84.13 1.15.42ZM27.06 4.9c0 .49.16.74.49.74s.48-.25.48-.75c0-.48-.16-.72-.49-.72s-.48.24-.48.73Zm4.4-2.57c.33-.02.66.09.92.29.24.21.36.52.34.84.02.33-.1.65-.35.88a1.4 1.4 0 0 1-.92.3h-1.33v1.72h-.39V2.33h1.72Zm-1.33 1.99h1.22c.26.01.51-.06.72-.2a.74.74 0 0 0 .28-.62.78.78 0 0 0-.25-.63 1.1 1.1 0 0 0-.71-.21h-1.26v1.65Zm5.63 2.02a.92.92 0 0 1-.28.05.3.3 0 0 1-.3-.14.75.75 0 0 1-.07-.39c-.23.38-.65.61-1.1.59-.25.02-.5-.06-.7-.21a.75.75 0 0 1-.25-.6c0-.52.36-.82 1.08-.9h.16l.15-.03h.12l.11-.03.09-.02.09-.02.06-.02.06-.03a.3.3 0 0 0 .1-.28.58.58 0 0 0-.2-.49.94.94 0 0 0-.56-.14.86.86 0 0 0-.56.17.78.78 0 0 0-.23.52h-.34c0-.28.12-.54.33-.72a1.5 1.5 0 0 1 1.62-.04c.19.15.3.38.29.62v1.73c0 .03.02.07.05.09.04.03.09.05.14.04.05 0 .09 0 .14-.02v.28Zm-.84-1.47-.21.05-.33.05h-.08l-.3.06-.27.09a.58.58 0 0 0-.23.18.57.57 0 0 0-.08.29c0 .16.06.31.18.4.14.11.31.16.49.15.26 0 .51-.08.7-.24.19-.16.3-.4.29-.65v-.48s-.11.08-.17.09Zm3.69 1.33c0 .87-.43 1.3-1.3 1.3-.3.02-.59-.06-.84-.22a.83.83 0 0 1-.34-.65h.36c.06.39.34.59.84.59.27.03.54-.07.73-.27.16-.23.24-.51.22-.79v-.48c-.17.41-.57.66-1.01.64-.35.01-.69-.13-.92-.39-.24-.3-.36-.67-.34-1.05-.02-.4.11-.79.35-1.1.23-.27.58-.43.93-.41a1 1 0 0 1 .98.63v-.55h.32v2.74ZM36.63 4c-.18.25-.27.55-.25.86-.02.3.07.6.25.85.16.21.42.33.68.32.27.01.53-.1.71-.32.19-.25.28-.56.26-.88.02-.3-.08-.59-.26-.83a.88.88 0 0 0-.69-.31.83.83 0 0 0-.69.31Zm4.89-.22c.26.32.39.72.37 1.13.02.41-.11.8-.37 1.12-.26.28-.62.43-1 .41-.38.02-.75-.14-1.01-.41-.26-.31-.4-.71-.38-1.12-.02-.41.11-.81.38-1.12a1.3 1.3 0 0 1 1.01-.42c.38-.02.74.14.99.42ZM39.78 4c-.2.26-.29.58-.28.9-.02.33.08.65.27.91.19.22.46.35.75.33.28.01.56-.11.74-.33.19-.26.29-.58.27-.9.02-.33-.08-.65-.28-.91a.98.98 0 0 0-1.39-.09l-.09.09Zm4.39.3c-.04-.42-.3-.63-.79-.63a.92.92 0 0 0-.49.13.39.39 0 0 0-.18.35.43.43 0 0 0 .13.32.5.5 0 0 0 .18.09l.22.07.3.07.3.07.28.1c.09.04.18.09.26.15a.7.7 0 0 1 .24.53c0 .26-.11.5-.32.65-.24.17-.54.26-.83.25a1.3 1.3 0 0 1-.87-.27c-.21-.2-.33-.48-.32-.77h.34c-.01.21.07.41.23.55.18.14.41.21.63.2.2 0 .4-.05.57-.16a.48.48 0 0 0 .15-.65.45.45 0 0 0-.2-.16 1.1 1.1 0 0 0-.23-.09 1.02 1.02 0 0 0-.25-.06h-.06l-.18-.06-.2-.05-.18-.05a1.34 1.34 0 0 1-.18-.07l-.15-.1a.53.53 0 0 1-.13-.13l-.07-.17a.75.75 0 0 1 .25-.81c.48-.3 1.1-.29 1.57.02.2.17.31.43.3.69h-.32Z"/></g></svg>