<svg width="27" height="29" viewBox="0 0 27 29" fill="none" xmlns="http://www.w3.org/2000/svg">
<g clip-path="url(#clip0_2293_3557)">
<path d="M19.113 0H7.66733C6.31664 0 5.22168 1.09496 5.22168 2.44565V25.6793C5.22168 27.03 6.31664 28.125 7.66733 28.125H19.113C20.4637 28.125 21.5586 27.03 21.5586 25.6793V2.44565C21.5586 1.09496 20.4637 0 19.113 0Z" fill="#E6EDF2"/>
<path d="M5.67391 22.0114C8.80753 22.0114 11.3478 19.4711 11.3478 16.3375C11.3478 13.2039 8.80753 10.6636 5.67391 10.6636C2.5403 10.6636 0 13.2039 0 16.3375C0 19.4711 2.5403 22.0114 5.67391 22.0114Z" fill="#FFC400"/>
<path d="M6.07747 13.1211V12.2896H5.2704V13.1211C4.82501 13.1914 4.42152 13.4244 4.13796 13.775C3.8544 14.1256 3.71092 14.5689 3.73526 15.0191C3.7596 15.4694 3.95003 15.8946 4.26972 16.2126C4.58942 16.5306 5.01568 16.7187 5.46605 16.7406H5.86959C6.43209 16.7406 6.88453 17.1809 6.89676 17.7434C6.89676 18.3059 6.45654 18.7583 5.89404 18.7705H5.46605C5.19687 18.7705 4.93872 18.6636 4.74838 18.4733C4.55804 18.2829 4.45111 18.0248 4.45111 17.7556V17.5477H3.64404V17.7556C3.64404 18.6849 4.34105 19.4553 5.25817 19.5531V20.3847H6.06524V19.5531C6.54371 19.4977 6.9812 19.2564 7.28321 18.8812C7.58522 18.5059 7.72752 18.027 7.67937 17.5477C7.63095 17.1024 7.4191 16.6908 7.08481 16.3927C6.75051 16.0945 6.31752 15.9309 5.86959 15.9336H5.46605C5.33277 15.9352 5.20047 15.9105 5.07671 15.861C4.95295 15.8115 4.84016 15.7381 4.74478 15.645C4.64939 15.5519 4.57328 15.4409 4.5208 15.3183C4.46831 15.1958 4.44048 15.0641 4.43888 14.9309C4.43888 14.3684 4.8791 13.9159 5.4416 13.9037H5.86959C6.43209 13.9037 6.88453 14.3561 6.88453 14.9186V15.1265H7.6916V14.9186C7.6916 13.9893 6.99459 13.2189 6.07747 13.1211Z" fill="#FFAB00"/>
<path d="M12.9375 18.1592H13.8424V19.0641H12.9375V18.1592ZM14.7473 18.1592H15.6522V19.0641H14.7473V18.1592ZM16.5693 18.1592H17.4742V19.0641H16.5693V18.1592Z" fill="#263238"/>
<path d="M7.66744 0H19.162C19.4832 0 19.8012 0.0632587 20.0979 0.186164C20.3946 0.30907 20.6642 0.489215 20.8913 0.716315C21.1184 0.943415 21.2986 1.21302 21.4215 1.50974C21.5444 1.80646 21.6077 2.12448 21.6077 2.44565V3.61957H5.22179V2.44565C5.22179 1.10054 6.32233 0 7.66744 0ZM19.1131 28.1372H7.6063C6.95767 28.1372 6.33561 27.8796 5.87696 27.4209C5.41831 26.9623 5.16064 26.3402 5.16064 25.6916V23.6005H21.5465V25.6916C21.5465 26.3402 21.2888 26.9623 20.8302 27.4209C20.3716 27.8796 19.7495 28.1372 19.1009 28.1372H19.1131Z" fill="#263238"/>
<path d="M10.8096 24.9702H15.7987V25.8751H10.8096V24.9702Z" fill="#37474F"/>
<path d="M25.9247 4.8916H13.2053C12.6656 4.8916 12.228 5.35505 12.228 5.92675V14.4543C12.228 15.026 12.6656 15.4894 13.2053 15.4894H25.9247C26.4644 15.4894 26.9019 15.026 26.9019 14.4543V5.92675C26.9019 5.35505 26.4644 4.8916 25.9247 4.8916Z" fill="url(#paint0_linear_2293_3557)"/>
<path d="M26.9019 7.74512H12.228V8.96794H26.9019V7.74512Z" fill="#0878FE"/>
<path d="M20.3805 10.1904H13.4512V11.4133H20.3805V10.1904Z" fill="#BBECFA"/>
</g>
<defs>
<linearGradient id="paint0_linear_2293_3557" x1="6.92911" y1="17.1199" x2="24.3738" y2="5.40639" gradientUnits="userSpaceOnUse">
<stop stop-color="#5AE1E2"/>
<stop offset="0.283331" stop-color="#02CBF8"/>
<stop offset="0.950568" stop-color="#5AE1E2"/>
</linearGradient>
<clipPath id="clip0_2293_3557">
<rect width="27" height="28.1372" fill="white"/>
</clipPath>
</defs>
</svg>
