<svg xmlns="http://www.w3.org/2000/svg" id="Layer_2" data-name="Layer 2" viewBox="0 0 22.08 23.01"><defs><style>.cls-8{fill:#263238}</style></defs><g id="Layer_1-2" data-name="Layer 1"><rect width="13.36" height="23" x="4.27" fill="#e6edf2" rx="2" ry="2"/><rect width="13.36" height="8.91" x="8.72" y="4.83" fill="#7986cb" rx="1" ry="1"/><path d="M8.72 6.31h13.36v2.13H8.72z" class="cls-8"/><circle cx="4.64" cy="13.36" r="4.64" fill="#ffc400"/><path fill="#ffab00" d="M4.97 10.73v-.68h-.66v.68a1.49 1.49 0 0 0 .16 2.96h.33c.46 0 .83.36.84.82 0 .46-.36.83-.82.84h-.35a.83.83 0 0 1-.83-.83v-.17h-.66v.17c0 .76.57 1.39 1.32 1.47v.68h.66v-.68a1.5 1.5 0 0 0 1.32-1.64 1.48 1.48 0 0 0-1.48-1.32h-.33a.83.83 0 0 1-.84-.82c0-.46.36-.83.82-.84h.35c.46 0 .83.37.83.83v.17h.66v-.17c0-.76-.57-1.39-1.32-1.47Z"/><path d="M10.58 14.85h.74v.74h-.74zm1.48 0h.74v.74h-.74zm1.49 0h.74v.74h-.74z" class="cls-8"/><circle cx="18.1" cy="11.26" r="1.24" fill="#e56565"/><circle cx="19.71" cy="11.26" r="1.24" fill="#ffd600"/><path d="M6.27 0h9.4a2 2 0 0 1 2 2v.96H4.27V2c0-1.1.9-2 2-2Zm9.36 23.01H6.22a2 2 0 0 1-2-2V19.3h13.4v1.71a2 2 0 0 1-2 2Z" class="cls-8"/><path fill="#37474f" d="M8.84 20.42h4.08v.74H8.84z"/></g></svg>