<svg width="55" height="35" viewBox="0 0 55 35" fill="none" xmlns="http://www.w3.org/2000/svg">
<mask id="mask0_315_871" style="mask-type:luminance" maskUnits="userSpaceOnUse" x="0" y="0" width="55" height="35">
<path d="M0 0H55V35H0V0Z" fill="white"/>
</mask>
<g mask="url(#mask0_315_871)">
<mask id="mask1_315_871" style="mask-type:luminance" maskUnits="userSpaceOnUse" x="0" y="0" width="55" height="35">
<path d="M50 0H5C2.23858 0 0 1.95875 0 4.375V30.625C0 33.0412 2.23858 35 5 35H50C52.7614 35 55 33.0412 55 30.625V4.375C55 1.95875 52.7614 0 50 0Z" fill="white"/>
</mask>
<g mask="url(#mask1_315_871)">
<path d="M49.7625 0H5.2375C2.345 0 0 2.08906 0 4.66594V30.3341C0 32.9109 2.345 35 5.2375 35H49.7625C52.655 35 55 32.9109 55 30.3341V4.66594C55 2.08906 52.655 0 49.7625 0Z" fill="white"/>
<path fill-rule="evenodd" clip-rule="evenodd" d="M0 24.0625H55V35H0V24.0625ZM0 0H55V10.9375H0V0Z" fill="#3ECBF8"/>
<path d="M27.4999 21C29.6699 21 31.4275 19.4337 31.4275 17.5C31.4275 15.5662 29.6699 14 27.4999 14C25.3299 14 23.5724 15.5662 23.5724 17.5C23.5724 19.4337 25.3299 21 27.4999 21Z" fill="#FFDA2C"/>
</g>
</g>
</svg>
