<svg width="55" height="35" viewBox="0 0 55 35" fill="none" xmlns="http://www.w3.org/2000/svg">
<mask id="mask0_315_845" style="mask-type:luminance" maskUnits="userSpaceOnUse" x="0" y="0" width="55" height="35">
<path d="M0 0H55V35H0V0Z" fill="white"/>
</mask>
<g mask="url(#mask0_315_845)">
<mask id="mask1_315_845" style="mask-type:luminance" maskUnits="userSpaceOnUse" x="0" y="0" width="55" height="35">
<path d="M50 0H5C2.23858 0 0 1.95875 0 4.375V30.625C0 33.0412 2.23858 35 5 35H50C52.7614 35 55 33.0412 55 30.625V4.375C55 1.95875 52.7614 0 50 0Z" fill="white"/>
</mask>
<g mask="url(#mask1_315_845)">
<path d="M50 0H5C2.23858 0 0 1.95875 0 4.375V30.625C0 33.0412 2.23858 35 5 35H50C52.7614 35 55 33.0412 55 30.625V4.375C55 1.95875 52.7614 0 50 0Z" fill="#1A47B8"/>
<path d="M49.7625 0H5.2375C2.345 0 0 2.08906 0 4.66594V30.3341C0 32.9109 2.345 35 5.2375 35H49.7625C52.655 35 55 32.9109 55 30.3341V4.66594C55 2.08906 52.655 0 49.7625 0Z" fill="#1A47B8"/>
<path opacity="0.5" fill-rule="evenodd" clip-rule="evenodd" d="M10.4749 26.8341L13.0949 25.666L14.4048 23.3341L15.7148 25.666L18.3323 26.8341L15.7148 28L14.4048 30.3341L13.0949 28L10.4749 26.8341ZM36.6674 7.00003V9.33409H39.2849V7.00003H36.6674ZM44.5248 9.33409V11.666H47.1423V9.33409H44.5248ZM34.0474 14V16.3341H36.6674V14H34.0474ZM41.9048 16.3341V18.666H44.5248V16.3341H41.9048ZM39.2849 23.3341V25.666H41.9048V23.3341H39.2849Z" fill="white"/>
<path d="M23.5724 2.33405H5.23737C3.79237 2.33405 2.61987 3.37748 2.61987 4.66592V16.334C2.61987 17.6225 3.79237 18.6659 5.23737 18.6659H23.5724C25.0174 18.6659 26.1899 17.6225 26.1899 16.334V4.66592C26.1899 3.37748 25.0174 2.33405 23.5724 2.33405Z" fill="white"/>
<path fill-rule="evenodd" clip-rule="evenodd" d="M13.0949 11.6659H5.23743V9.33405H13.0949V4.66592H15.7149V9.33405H23.5724V11.6659H15.7149V16.334H13.0949V11.6659ZM19.6424 14V16.334H23.5724V14H19.6424ZM19.6424 4.66592V6.99999H23.5724V4.66592H19.6424ZM5.23743 14V16.334H9.16744V14H5.23743ZM5.23743 4.66592V6.99999H9.16744V4.66592H5.23743Z" fill="#F93939"/>
</g>
</g>
</svg>
