<svg width="55" height="35" viewBox="0 0 55 35" fill="none" xmlns="http://www.w3.org/2000/svg">
<mask id="mask0_315_858" style="mask-type:luminance" maskUnits="userSpaceOnUse" x="0" y="0" width="55" height="35">
<path d="M0 0H55V35H0V0Z" fill="white"/>
</mask>
<g mask="url(#mask0_315_858)">
<mask id="mask1_315_858" style="mask-type:luminance" maskUnits="userSpaceOnUse" x="0" y="0" width="55" height="35">
<path d="M50 0H5C2.23858 0 0 1.95875 0 4.375V30.625C0 33.0412 2.23858 35 5 35H50C52.7614 35 55 33.0412 55 30.625V4.375C55 1.95875 52.7614 0 50 0Z" fill="white"/>
</mask>
<g mask="url(#mask1_315_858)">
<path d="M50 0H5C2.23858 0 0 1.95875 0 4.375V30.625C0 33.0412 2.23858 35 5 35H50C52.7614 35 55 33.0412 55 30.625V4.375C55 1.95875 52.7614 0 50 0Z" fill="#3ECBF8"/>
<path d="M49.7625 0H5.2375C2.345 0 0 2.08906 0 4.66594V30.3341C0 32.9109 2.345 35 5.2375 35H49.7625C52.655 35 55 32.9109 55 30.3341V4.66594C55 2.08906 52.655 0 49.7625 0Z" fill="#3ECBF8"/>
<path fill-rule="evenodd" clip-rule="evenodd" d="M11.7474 10.465C14.0249 10.3359 15.715 9.88092 15.715 9.33405C15.715 8.78717 14.0249 8.32999 11.7474 8.20092C11.6024 6.17092 11.0924 4.66592 10.4749 4.66592C9.86243 4.66592 9.34994 6.17092 9.20494 8.20092C6.92744 8.32999 5.23743 8.78499 5.23743 9.33405C5.23743 9.88092 6.92744 10.3359 9.20494 10.465C9.34994 12.495 9.85993 14 10.4749 14C11.0899 14 11.6024 12.495 11.7474 10.465Z" fill="#F93939"/>
<path fill-rule="evenodd" clip-rule="evenodd" d="M11.7476 10.465C14.0251 10.3359 15.7151 9.88094 15.7151 9.33406C15.7151 8.78719 14.0251 8.33 11.7476 8.20094C11.6026 6.17094 11.0926 4.66594 10.4751 4.66594C9.86258 4.66594 9.35009 6.17094 9.20509 8.20094C6.92759 8.33 5.23758 8.785 5.23758 9.33406C5.23758 9.88094 6.92759 10.3359 9.20509 10.465C9.35009 12.495 9.86008 14 10.4751 14C11.0901 14 11.6026 12.495 11.7476 10.465ZM11.8251 11.6309L13.055 10.535C12.86 13.3306 12.2051 15.1659 10.4751 15.1659C8.74758 15.1659 8.09259 13.3284 7.90009 10.5372L9.12506 11.6309C5.99256 11.4559 3.92761 10.8741 3.92761 9.33406C3.92761 7.79406 5.99256 7.21 9.12506 7.03719L7.90009 8.13094C8.09259 5.33969 8.74758 3.5 10.4751 3.5C12.2051 3.5 12.8601 5.3375 13.0526 8.12875L11.8275 7.03719C14.96 7.21 17.0251 7.79406 17.0251 9.33406C17.0251 10.8741 14.9576 11.4559 11.8251 11.6309Z" fill="white"/>
<path fill-rule="evenodd" clip-rule="evenodd" d="M0 21.875H55V24.0625H0V21.875ZM0 26.25H55V28.4375H0V26.25Z" fill="#FFDA2C"/>
</g>
</g>
</svg>
