<svg width="55" height="35" viewBox="0 0 55 35" fill="none" xmlns="http://www.w3.org/2000/svg">
<mask id="mask0_315_795" style="mask-type:luminance" maskUnits="userSpaceOnUse" x="0" y="0" width="55" height="35">
<path d="M0 0H55V35H0V0Z" fill="white"/>
</mask>
<g mask="url(#mask0_315_795)">
<mask id="mask1_315_795" style="mask-type:luminance" maskUnits="userSpaceOnUse" x="0" y="0" width="55" height="35">
<path d="M50 0H5C2.23858 0 0 1.95875 0 4.375V30.625C0 33.0412 2.23858 35 5 35H50C52.7614 35 55 33.0412 55 30.625V4.375C55 1.95875 52.7614 0 50 0Z" fill="white"/>
</mask>
<g mask="url(#mask1_315_795)">
<path d="M50 0H5C2.23858 0 0 1.95875 0 4.375V30.625C0 33.0412 2.23858 35 5 35H50C52.7614 35 55 33.0412 55 30.625V4.375C55 1.95875 52.7614 0 50 0Z" fill="white"/>
<path d="M28.0875 26.25H26.9125L27.205 22.4656C27.19 22.2666 27.07 22.2141 26.6175 22.2294L21.9125 22.7019C21.9125 22.7019 22.795 21.7569 22.795 21.2844C22.795 20.8119 17.5 17.7363 17.5 17.7363C17.5 17.7363 18.675 17.5 18.97 17.2637C19.265 17.0275 17.795 14.4266 17.795 14.4266C17.795 14.4266 20.7825 15.3716 21.03 15.1353C21.275 14.8991 21.6175 13.9519 21.6175 13.9519C21.6175 13.9519 23.97 16.0803 24.5575 16.0803C25.1475 16.0803 23.3825 10.8784 23.3825 10.8784C23.3825 10.8784 24.8525 11.8234 25.4425 11.8234C26.03 11.8234 27.5 8.75 27.5 8.75C27.5 8.75 28.97 11.8234 29.265 11.8234C29.5575 11.8234 31.6175 10.8784 31.6175 10.8784C31.6175 10.8784 30.1475 15.8441 30.4425 16.0803C30.735 16.3166 33.3825 13.9519 33.3825 13.9519C33.3825 13.9519 33.6775 14.8991 33.97 15.1353C34.265 15.3716 37.205 14.4266 37.205 14.4266C37.205 14.4266 35.735 17.0275 36.03 17.2637C36.3225 17.5 37.5 17.7363 37.5 17.7363C37.5 17.7363 32.205 20.8119 32.205 21.2844C32.205 21.7569 32.795 22.7019 32.795 22.7019L28.3825 22.2294C28.0275 22.1484 27.905 22.2097 27.795 22.4656L28.0875 26.25ZM42.5 0H55V35H42.5V0ZM0 0H12.5V35H0V0Z" fill="#F93939"/>
</g>
</g>
</svg>
