<svg width="55" height="35" viewBox="0 0 55 35" fill="none" xmlns="http://www.w3.org/2000/svg">
<mask id="mask0_315_771" style="mask-type:luminance" maskUnits="userSpaceOnUse" x="0" y="0" width="55" height="35">
<path d="M0 0H55V35H0V0Z" fill="white"/>
</mask>
<g mask="url(#mask0_315_771)">
<mask id="mask1_315_771" style="mask-type:luminance" maskUnits="userSpaceOnUse" x="0" y="0" width="55" height="35">
<path d="M50 0H5C2.23858 0 0 1.95875 0 4.375V30.625C0 33.0412 2.23858 35 5 35H50C52.7614 35 55 33.0412 55 30.625V4.375C55 1.95875 52.7614 0 50 0Z" fill="white"/>
</mask>
<g mask="url(#mask1_315_771)">
<path d="M50 0H5C2.23858 0 0 1.95875 0 4.375V30.625C0 33.0412 2.23858 35 5 35H50C52.7614 35 55 33.0412 55 30.625V4.375C55 1.95875 52.7614 0 50 0Z" fill="#F93939"/>
<path d="M49.7625 0H5.2375C2.345 0 0 2.08907 0 4.66594V30.3341C0 32.9109 2.345 35 5.2375 35H49.7625C52.655 35 55 32.9109 55 30.3341V4.66594C55 2.08907 52.655 0 49.7625 0Z" fill="#F93939"/>
<path fill-rule="evenodd" clip-rule="evenodd" d="M14.4001 16.87L10.5501 18.6747L11.2826 14.8531L8.17261 12.1472L12.4751 11.5938L14.4001 8.11563L16.3226 11.5938L20.6251 12.1472L17.5076 14.8531L18.2476 18.6703L14.4001 16.87ZM23.5725 7H26.1901V9.33407H23.5725V7ZM26.1901 11.6659H28.81V14H26.1901V11.6659ZM26.1901 16.3341H28.81V18.6659H26.1901V16.3341ZM23.5725 21H26.1901V23.3341H23.5725V21Z" fill="#FFDA2C"/>
</g>
</g>
</svg>
