<svg width="55" height="35" viewBox="0 0 55 35" fill="none" xmlns="http://www.w3.org/2000/svg">
<mask id="mask0_315_722" style="mask-type:luminance" maskUnits="userSpaceOnUse" x="0" y="0" width="55" height="35">
<path d="M0 0H55V35H0V0Z" fill="white"/>
</mask>
<g mask="url(#mask0_315_722)">
<mask id="mask1_315_722" style="mask-type:luminance" maskUnits="userSpaceOnUse" x="0" y="0" width="55" height="35">
<path d="M50 0H5C2.23858 0 0 1.95875 0 4.375V30.625C0 33.0412 2.23858 35 5 35H50C52.7614 35 55 33.0412 55 30.625V4.375C55 1.95875 52.7614 0 50 0Z" fill="white"/>
</mask>
<g mask="url(#mask1_315_722)">
<path d="M50 0H5C2.23858 0 0 1.95875 0 4.375V30.625C0 33.0412 2.23858 35 5 35H50C52.7614 35 55 33.0412 55 30.625V4.375C55 1.95875 52.7614 0 50 0Z" fill="white"/>
<path d="M0 0H25V13.125H0V0Z" fill="#1A47B8"/>
<path d="M32.5 0H55V13.125H32.5V0Z" fill="#F93939"/>
<path d="M32.5 21.875H55V35H32.5V21.875Z" fill="#1A47B8"/>
<path d="M0 21.875H25V35H0V21.875Z" fill="#F93939"/>
<path d="M28.75 21.875C30.8211 21.875 32.5 19.9162 32.5 17.5C32.5 15.0838 30.8211 13.125 28.75 13.125C26.6789 13.125 25 15.0838 25 17.5C25 19.9162 26.6789 21.875 28.75 21.875Z" fill="#249F58"/>
<path d="M26.25 15.3125C26.9404 15.3125 27.5 14.8228 27.5 14.2188C27.5 13.6147 26.9404 13.125 26.25 13.125C25.5596 13.125 25 13.6147 25 14.2188C25 14.8228 25.5596 15.3125 26.25 15.3125Z" fill="#232C80"/>
<path d="M31.25 21.875C30.5596 21.875 30 21.3853 30 20.7812C30 20.1772 30.5596 19.6875 31.25 19.6875C31.9404 19.6875 32.5 20.1772 32.5 20.7812C32.5 21.3853 31.9404 21.875 31.25 21.875Z" fill="#232C80"/>
<path d="M31.25 15.3125C31.9404 15.3125 32.5 14.8228 32.5 14.2188C32.5 13.6147 31.9404 13.125 31.25 13.125C30.5596 13.125 30 13.6147 30 14.2188C30 14.8228 30.5596 15.3125 31.25 15.3125Z" fill="#F93939"/>
<path d="M28.75 19.6875C29.4404 19.6875 30 18.7081 30 17.5C30 16.2919 29.4404 15.3125 28.75 15.3125C28.0596 15.3125 27.5 16.2919 27.5 17.5C27.5 18.7081 28.0596 19.6875 28.75 19.6875Z" fill="white"/>
<path d="M26.25 21.875C25.5596 21.875 25 21.3853 25 20.7812C25 20.1772 25.5596 19.6875 26.25 19.6875C26.9404 19.6875 27.5 20.1772 27.5 20.7812C27.5 21.3853 26.9404 21.875 26.25 21.875Z" fill="#F93939"/>
</g>
</g>
</svg>
