<svg width="55" height="35" viewBox="0 0 55 35" fill="none" xmlns="http://www.w3.org/2000/svg">
<mask id="mask0_315_741" style="mask-type:luminance" maskUnits="userSpaceOnUse" x="0" y="0" width="55" height="35">
<path d="M0 0H55V35H0V0Z" fill="white"/>
</mask>
<g mask="url(#mask0_315_741)">
<mask id="mask1_315_741" style="mask-type:luminance" maskUnits="userSpaceOnUse" x="0" y="0" width="55" height="35">
<path d="M50 0H5C2.23858 0 0 1.95875 0 4.375V30.625C0 33.0412 2.23858 35 5 35H50C52.7614 35 55 33.0412 55 30.625V4.375C55 1.95875 52.7614 0 50 0Z" fill="white"/>
</mask>
<g mask="url(#mask1_315_741)">
<path d="M50 0H5C2.23858 0 0 1.95875 0 4.375V30.625C0 33.0412 2.23858 35 5 35H50C52.7614 35 55 33.0412 55 30.625V4.375C55 1.95875 52.7614 0 50 0Z" fill="#1A47B8"/>
<path d="M49.7625 0H5.2375C2.345 0 0 2.08906 0 4.66594V30.3341C0 32.9109 2.345 35 5.2375 35H49.7625C52.655 35 55 32.9109 55 30.3341V4.66594C55 2.08906 52.655 0 49.7625 0Z" fill="#1A47B8"/>
<path fill-rule="evenodd" clip-rule="evenodd" d="M27.5002 4.375L28.1902 5.73125L29.8776 5.88656L28.6176 6.87969L28.9702 8.33219L27.5002 7.59063L26.0301 8.33219L26.3827 6.87969L25.1227 5.88656L26.8102 5.73125L27.5002 4.375ZM15.6902 16.6687L15.0002 15.3125L14.3102 16.6687L12.6227 16.8241L13.8827 17.8172L13.5301 19.2697L15.0002 18.5281L16.4702 19.2697L16.1176 17.8172L17.3776 16.8241L15.6902 16.6687ZM40.6902 16.6687L40.0002 15.3125L39.3102 16.6687L37.6227 16.8241L38.8827 17.8172L38.5301 19.2697L40.0002 18.5281L41.4702 19.2697L41.1176 17.8172L42.3776 16.8241L40.6902 16.6687ZM28.1902 27.6062L27.5002 26.25L26.8102 27.6062L25.1227 27.7616L26.3827 28.7547L26.0301 30.2072L27.5002 29.4656L28.9702 30.2072L28.6176 28.7547L29.8776 27.7616L28.1902 27.6062ZM18.7502 22.9688L19.4402 24.325L21.1276 24.4803L19.8676 25.4734L20.2202 26.9259L18.7502 26.1844L17.2801 26.9259L17.6327 25.4734L16.3727 24.4803L18.0602 24.325L18.7502 22.9688ZM19.4402 9.0125L18.7502 7.65625L18.0602 9.0125L16.3727 9.16781L17.6327 10.1609L17.2801 11.6134L18.7502 10.8719L20.2202 11.6134L19.8676 10.1609L21.1276 9.16781L19.4402 9.0125ZM36.2502 22.9688L36.9402 24.325L38.6276 24.4803L37.3676 25.4734L37.7202 26.9259L36.2502 26.1844L34.7801 26.9259L35.1327 25.4734L33.8727 24.4803L35.5602 24.325L36.2502 22.9688ZM36.9402 9.0125L36.2502 7.65625L35.5602 9.0125L33.8727 9.16781L35.1327 10.1609L34.7801 11.6134L36.2502 10.8719L37.7202 11.6134L37.3676 10.1609L38.6276 9.16781L36.9402 9.0125Z" fill="#FFFF00"/>
</g>
</g>
</svg>
