<svg width="55" height="35" viewBox="0 0 55 35" fill="none" xmlns="http://www.w3.org/2000/svg">
<mask id="mask0_315_710" style="mask-type:luminance" maskUnits="userSpaceOnUse" x="0" y="0" width="55" height="35">
<path d="M0 0H55V35H0V0Z" fill="white"/>
</mask>
<g mask="url(#mask0_315_710)">
<mask id="mask1_315_710" style="mask-type:luminance" maskUnits="userSpaceOnUse" x="0" y="0" width="55" height="35">
<path d="M50 0H5C2.23858 0 0 1.95875 0 4.375V30.625C0 33.0412 2.23858 35 5 35H50C52.7614 35 55 33.0412 55 30.625V4.375C55 1.95875 52.7614 0 50 0Z" fill="white"/>
</mask>
<g mask="url(#mask1_315_710)">
<path d="M50 0H5C2.23858 0 0 1.95875 0 4.375V30.625C0 33.0412 2.23858 35 5 35H50C52.7614 35 55 33.0412 55 30.625V4.375C55 1.95875 52.7614 0 50 0Z" fill="white"/>
<path d="M40 0H55V35H40V0ZM0 0H15V35H0V0Z" fill="#3ECBF8"/>
<path d="M28.75 19.6875C29.44 19.6875 30 18.7075 30 17.5C30 16.2925 29.44 15.3125 28.75 15.3125C28.06 15.3125 27.5 16.2925 27.5 17.5C27.5 18.7075 28.06 19.6875 28.75 19.6875Z" fill="#FFDA2C"/>
<path fill-rule="evenodd" clip-rule="evenodd" d="M35 18.5938C35 17.1433 34.3415 15.7524 33.1694 14.7268C31.9973 13.7012 30.4076 13.125 28.75 13.125C27.0924 13.125 25.5027 13.7012 24.3306 14.7268C23.1585 15.7524 22.5 17.1433 22.5 18.5938C22.5 20.0442 23.1585 21.4351 24.3306 22.4607C25.5027 23.4863 27.0924 24.0625 28.75 24.0625C30.4076 24.0625 31.9973 23.4863 33.1694 22.4607C34.3415 21.4351 35 20.0442 35 18.5938ZM28.75 21.875C30.82 21.875 32.5 19.9172 32.5 17.5C32.5 15.0828 30.82 13.125 28.75 13.125C26.68 13.125 25 15.0828 25 17.5C25 19.9172 26.68 21.875 28.75 21.875Z" fill="#249F58"/>
</g>
</g>
</svg>
