<svg width="55" height="35" viewBox="0 0 55 35" fill="none" xmlns="http://www.w3.org/2000/svg">
<mask id="mask0_315_704" style="mask-type:luminance" maskUnits="userSpaceOnUse" x="0" y="0" width="55" height="35">
<path d="M0 0H55V35H0V0Z" fill="white"/>
</mask>
<g mask="url(#mask0_315_704)">
<path d="M50 0H5C2.23858 0 0 1.95875 0 4.375V30.625C0 33.0412 2.23858 35 5 35H50C52.7614 35 55 33.0412 55 30.625V4.375C55 1.95875 52.7614 0 50 0Z" fill="#F93939"/>
<path fill-rule="evenodd" clip-rule="evenodd" d="M26.5976 17.5328C19.4926 14.8531 22.6425 6.60404 29.4375 7.0131C28.06 7.6431 27.8626 8.82001 28.6476 9.90719C29.5276 11.13 28.5675 13.0922 27.38 13.5712C25.425 14.3522 25.035 16.4412 26.595 17.5328H26.5976ZM27.1901 17.2484C27.8526 10.4037 37.64 10.5219 39.29 16.404C38.195 15.435 36.8825 15.6297 35.96 16.6315C34.93 17.7515 32.54 17.5416 31.665 16.6863C30.2225 15.2753 27.8676 15.5881 27.1901 17.2506V17.2484ZM27.4325 17.9309C34.975 16.4959 37.7101 24.8653 31.8776 27.9978C32.6001 26.7772 32.0076 25.7119 30.6601 25.2219C29.1576 24.6706 28.6801 22.5728 29.3476 21.5753C30.4401 19.9369 29.415 18.0228 27.435 17.9287L27.4325 17.9309ZM17.6776 25.62C19.1976 25.8541 20.1525 25.0206 20.26 23.73C20.385 22.2841 22.475 21.2341 23.745 21.49C25.835 21.91 27.56 20.4487 27.045 18.7403C30.91 24.6903 22.8201 29.5903 17.6751 25.6178L17.6776 25.62ZM16.1151 12.8341C16.4151 14.1816 17.6301 14.6759 19.0226 14.3041C20.5801 13.8884 22.4325 15.2512 22.6175 16.404C22.9275 18.2897 25.075 19.1997 26.6775 18.1628C21.8325 23.5069 13.7926 18.5369 16.1151 12.8319V12.8341Z" fill="white"/>
</g>
</svg>
