<svg width="55" height="35" viewBox="0 0 55 35" fill="none" xmlns="http://www.w3.org/2000/svg">
<mask id="mask0_315_698" style="mask-type:luminance" maskUnits="userSpaceOnUse" x="0" y="0" width="55" height="35">
<path d="M0 0H55V35H0V0Z" fill="white"/>
</mask>
<g mask="url(#mask0_315_698)">
<path d="M50 0H5C2.23858 0 0 1.95875 0 4.375V30.625C0 33.0412 2.23858 35 5 35H50C52.7614 35 55 33.0412 55 30.625V4.375C55 1.95875 52.7614 0 50 0Z" fill="white"/>
<path d="M27.5 25.6659C32.5625 25.6659 36.6675 22.0106 36.6675 17.4999C36.6675 12.9893 32.5625 9.33398 27.5 9.33398C22.4375 9.33398 18.3325 12.9893 18.3325 17.4999C18.3325 22.0106 22.4375 25.6659 27.5 25.6659Z" fill="#F93939"/>
</g>
</svg>
