<svg width="55" height="35" viewBox="0 0 55 35" fill="none" xmlns="http://www.w3.org/2000/svg">
<mask id="mask0_315_666" style="mask-type:luminance" maskUnits="userSpaceOnUse" x="0" y="0" width="55" height="35">
<path d="M0 0H55V35H0V0Z" fill="white"/>
</mask>
<g mask="url(#mask0_315_666)">
<path d="M50 0H5C2.23858 0 0 1.95875 0 4.375V30.625C0 33.0412 2.23858 35 5 35H50C52.7614 35 55 33.0412 55 30.625V4.375C55 1.95875 52.7614 0 50 0Z" fill="white"/>
<path fill-rule="evenodd" clip-rule="evenodd" d="M36.6676 17.5C36.6676 22.0106 32.5625 25.6659 27.5 25.6659C22.4375 25.6659 18.3325 22.0106 18.3325 17.5C18.3325 14.8859 24.4875 13.79 29.6675 14.2034C30.2175 14.0722 30.81 14.0001 31.4275 14.0001C34.3225 14.0001 36.6676 15.5684 36.6676 17.5Z" fill="#232C80"/>
<path fill-rule="evenodd" clip-rule="evenodd" d="M26.19 16.334C26.19 16.334 28.535 14 31.4275 14C34.3225 14 36.6676 15.5684 36.6676 17.5C36.6676 12.9894 32.5625 9.33411 27.5 9.33411C23.84 9.33411 20.6825 11.2415 19.2125 14.0043C18.3325 16.334 18.3325 17.0144 18.3325 17.5C19.6425 18.6659 21.1 18.666 22.2625 18.666C23.425 18.666 24.47 18.2153 25.19 17.5L26.19 16.334Z" fill="#F93939"/>
<path fill-rule="evenodd" clip-rule="evenodd" d="M39.2849 11.6659H44.5248L39.2849 7H36.6674L39.2849 11.6659ZM15.7148 11.6659H10.4749L15.7148 7H18.3323L15.7148 11.6659ZM39.2849 23.334H44.5248L39.2849 27.9999H36.6674L39.2849 23.334ZM15.7148 23.334H10.4749L15.7148 27.9999H18.3323L15.7148 23.334Z" fill="#151515"/>
</g>
</svg>
