<svg width="55" height="35" viewBox="0 0 55 35" fill="none" xmlns="http://www.w3.org/2000/svg">
<mask id="mask0_315_685" style="mask-type:luminance" maskUnits="userSpaceOnUse" x="0" y="0" width="55" height="35">
<path d="M0 0H55V35H0V0Z" fill="white"/>
</mask>
<g mask="url(#mask0_315_685)">
<mask id="mask1_315_685" style="mask-type:luminance" maskUnits="userSpaceOnUse" x="0" y="0" width="55" height="35">
<path d="M50 0H5C2.23858 0 0 1.95875 0 4.375V30.625C0 33.0412 2.23858 35 5 35H50C52.7614 35 55 33.0412 55 30.625V4.375C55 1.95875 52.7614 0 50 0Z" fill="white"/>
</mask>
<g mask="url(#mask1_315_685)">
<path d="M50 0H5C2.23858 0 0 1.95875 0 4.375V30.625C0 33.0412 2.23858 35 5 35H50C52.7614 35 55 33.0412 55 30.625V4.375C55 1.95875 52.7614 0 50 0Z" fill="white"/>
<path d="M40 0H55V35H40V0Z" fill="#F93939"/>
<path d="M0 0H15V35H0V0Z" fill="#249F58"/>
<path fill-rule="evenodd" clip-rule="evenodd" d="M34.9425 17.5022C34.98 17.7406 35 17.9835 35 18.2307C35 21.4507 31.6425 24.0625 27.5 24.0625C23.3575 24.0625 20 21.4507 20 18.2307C20 17.9835 20.02 17.7406 20.0575 17.5C20.52 19.74 23.675 21.4703 27.5 21.4703C31.325 21.4703 34.48 19.7378 34.9425 17.5V17.5022Z" fill="#249F58"/>
<path d="M27.4999 18.6659C29.669 18.6659 31.4274 17.099 31.4274 15.166C31.4274 13.233 29.669 11.666 27.4999 11.666C25.3308 11.666 23.5724 13.233 23.5724 15.166C23.5724 17.099 25.3308 18.6659 27.4999 18.6659Z" fill="#AE6A3E"/>
</g>
</g>
</svg>
