<svg width="55" height="35" viewBox="0 0 55 35" fill="none" xmlns="http://www.w3.org/2000/svg">
<mask id="mask0_315_635" style="mask-type:luminance" maskUnits="userSpaceOnUse" x="0" y="0" width="55" height="35">
<path d="M0 0H55V35H0V0Z" fill="white"/>
</mask>
<g mask="url(#mask0_315_635)">
<mask id="mask1_315_635" style="mask-type:luminance" maskUnits="userSpaceOnUse" x="0" y="0" width="55" height="35">
<path d="M50 0H5C2.23858 0 0 1.95875 0 4.375V30.625C0 33.0412 2.23858 35 5 35H50C52.7614 35 55 33.0412 55 30.625V4.375C55 1.95875 52.7614 0 50 0Z" fill="white"/>
</mask>
<g mask="url(#mask1_315_635)">
<path d="M50 0H5C2.23858 0 0 1.95875 0 4.375V30.625C0 33.0412 2.23858 35 5 35H50C52.7614 35 55 33.0412 55 30.625V4.375C55 1.95875 52.7614 0 50 0Z" fill="white"/>
<path d="M49.7625 0H5.2375C2.345 0 0 2.08905 0 4.66593V30.3341C0 32.9109 2.345 35 5.2375 35H49.7625C52.655 35 55 32.9109 55 30.3341V4.66593C55 2.08905 52.655 0 49.7625 0Z" fill="white"/>
<path fill-rule="evenodd" clip-rule="evenodd" d="M15.6448 11.6068C15.4723 12.9959 14.9798 14 14.4048 14C13.8273 14 13.3349 12.9959 13.1624 11.6068C11.6024 11.4515 10.4749 11.014 10.4749 10.4999C10.4749 9.98588 11.6024 9.54842 13.1624 9.39311C13.3349 8.00405 13.8273 7 14.4048 7C14.9798 7 15.4723 8.00405 15.6448 9.39311C17.2073 9.54842 18.3324 9.98588 18.3324 10.4999C18.3324 11.014 17.2073 11.4515 15.6448 11.6068Z" fill="#1A47B8"/>
<path fill-rule="evenodd" clip-rule="evenodd" d="M41.8375 27.9388C41.665 29.33 41.1725 30.3341 40.595 30.3341C40.02 30.3341 39.5275 29.33 39.355 27.9388C37.7925 27.7856 36.6675 27.3459 36.6675 26.8341C36.6675 26.32 37.7925 25.8803 39.355 25.7272C39.5275 24.3359 40.0175 23.334 40.595 23.334C41.1725 23.334 41.665 24.3359 41.8375 25.7272C43.3975 25.8803 44.525 26.3178 44.525 26.8341C44.525 27.3459 43.3975 27.7856 41.8375 27.9388Z" fill="#F93939"/>
<path fill-rule="evenodd" clip-rule="evenodd" d="M0 17.5H27.5V35H0V17.5Z" fill="#1A47B8"/>
<path fill-rule="evenodd" clip-rule="evenodd" d="M27.5 0H55V17.5H27.5V0Z" fill="#F93939"/>
</g>
</g>
</svg>
