<svg width="55" height="35" viewBox="0 0 55 35" fill="none" xmlns="http://www.w3.org/2000/svg">
<mask id="mask0_315_659" style="mask-type:luminance" maskUnits="userSpaceOnUse" x="0" y="0" width="55" height="35">
<path d="M0 0H55V35H0V0Z" fill="white"/>
</mask>
<g mask="url(#mask0_315_659)">
<path d="M50 0H5C2.23858 0 0 1.95875 0 4.375V30.625C0 33.0412 2.23858 35 5 35H50C52.7614 35 55 33.0412 55 30.625V4.375C55 1.95875 52.7614 0 50 0Z" fill="white"/>
<path fill-rule="evenodd" clip-rule="evenodd" d="M0 0H55V21.875H0V0Z" fill="#F93939"/>
<path fill-rule="evenodd" clip-rule="evenodd" d="M15.715 18.3466C14.9325 18.5606 14.1172 18.6683 13.2974 18.6659C8.84492 18.6659 5.23743 15.5335 5.23743 11.666C5.23743 7.80067 8.84742 4.66595 13.2974 4.66595C14.1399 4.66595 14.9525 4.7797 15.715 4.98532C14.0839 5.42793 12.657 6.3147 11.6421 7.51635C10.6272 8.718 10.0772 10.1718 10.0724 11.666C10.0724 14.8007 12.445 17.4541 15.715 18.3466ZM20.9525 7.00005H23.5724V9.33409H20.9525V7.00005ZM26.19 9.33409H28.8099V11.666H26.19V9.33409ZM23.5724 14H26.19V16.3341H23.5724V14ZM15.715 9.33409H18.3324V11.666H15.715V9.33409ZM18.3324 14H20.9525V16.3341H18.3324V14Z" fill="white"/>
</g>
</svg>
