<svg width="55" height="35" viewBox="0 0 55 35" fill="none" xmlns="http://www.w3.org/2000/svg">
<mask id="mask0_315_607" style="mask-type:luminance" maskUnits="userSpaceOnUse" x="0" y="0" width="55" height="35">
<path d="M0 0H55V35H0V0Z" fill="white"/>
</mask>
<g mask="url(#mask0_315_607)">
<mask id="mask1_315_607" style="mask-type:luminance" maskUnits="userSpaceOnUse" x="0" y="0" width="55" height="35">
<path d="M50 0H5C2.23858 0 0 1.95875 0 4.375V30.625C0 33.0412 2.23858 35 5 35H50C52.7614 35 55 33.0412 55 30.625V4.375C55 1.95875 52.7614 0 50 0Z" fill="white"/>
</mask>
<g mask="url(#mask1_315_607)">
<path d="M50 0H5C2.23858 0 0 1.95875 0 4.375V30.625C0 33.0412 2.23858 35 5 35H50C52.7614 35 55 33.0412 55 30.625V4.375C55 1.95875 52.7614 0 50 0Z" fill="white"/>
<path fill-rule="evenodd" clip-rule="evenodd" d="M0 0H23.5725V16.334H0V0Z" fill="#1A47B8"/>
<path fill-rule="evenodd" clip-rule="evenodd" d="M23.5725 0V2.3341H55V0H23.5725ZM23.5725 4.66593V7.00003H55V4.66593H23.5725ZM23.5725 9.33413V11.666H55V9.33413H23.5725ZM23.5725 14.0001V16.334H55V14.0001H23.5725ZM0 18.666V20.9999H55V18.666H0ZM0 23.334V25.6659H55V23.334H0ZM0 28V30.3341H55V28H0ZM0 32.6659V35H55V32.6659H0Z" fill="#F93939"/>
<path fill-rule="evenodd" clip-rule="evenodd" d="M2.61987 2.33411V4.66594H5.23737V2.33411H2.61987ZM7.85737 2.33411V4.66594H10.4749V2.33411H7.85737ZM13.0949 2.33411V4.66594H15.7149V2.33411H13.0949ZM18.3324 2.33411V4.66594H20.9524V2.33411H18.3324ZM15.7149 4.66594V7.00003H18.3324V4.66594H15.7149ZM10.4749 4.66594V7.00003H13.0949V4.66594H10.4749ZM5.23737 4.66594V7.00003H7.85737V4.66594H5.23737ZM2.61987 7.00003V9.33413H5.23737V7.00003H2.61987ZM7.85737 7.00003V9.33413H10.4749V7.00003H7.85737ZM13.0949 7.00003V9.33413H15.7149V7.00003H13.0949ZM18.3324 7.00003V9.33413H20.9524V7.00003H18.3324ZM2.61987 11.666V14.0001H5.23737V11.666H2.61987ZM7.85737 11.666V14.0001H10.4749V11.666H7.85737ZM13.0949 11.666V14.0001H15.7149V11.666H13.0949ZM18.3324 11.666V14.0001H20.9524V11.666H18.3324ZM15.7149 9.33413V11.666H18.3324V9.33413H15.7149ZM10.4749 9.33413V11.666H13.0949V9.33413H10.4749ZM5.23737 9.33413V11.666H7.85737V9.33413H5.23737Z" fill="white"/>
</g>
</g>
</svg>
