<svg width="55" height="35" viewBox="0 0 55 35" fill="none" xmlns="http://www.w3.org/2000/svg">
<mask id="mask0_315_598" style="mask-type:luminance" maskUnits="userSpaceOnUse" x="0" y="0" width="55" height="35">
<path d="M0 0H55V35H0V0Z" fill="white"/>
</mask>
<g mask="url(#mask0_315_598)">
<path d="M50 0H5C2.23858 0 0 1.95875 0 4.375V30.625C0 33.0412 2.23858 35 5 35H50C52.7614 35 55 33.0412 55 30.625V4.375C55 1.95875 52.7614 0 50 0Z" fill="white"/>
<path fill-rule="evenodd" clip-rule="evenodd" d="M26.19 7H55V11.6659H26.19V7ZM26.19 16.334H55V20.9999H26.19V16.334ZM0 25.6658H55V30.334H0V25.6658Z" fill="#3A99FF"/>
<path fill-rule="evenodd" clip-rule="evenodd" d="M18.0199 16.0541C17.4174 18.9591 16.0274 21 14.4049 21C12.7799 21 11.3924 18.9613 10.7899 16.0541C7.52987 15.5159 5.23987 14.28 5.23987 12.8341C5.23987 11.386 7.52737 10.1501 10.7899 9.61413C11.3924 6.70913 12.7799 4.66595 14.4049 4.66595C16.0299 4.66595 17.4174 6.70694 18.0199 9.61413C21.2799 10.1501 23.5699 11.386 23.5699 12.8341C23.5699 14.28 21.2824 15.5159 18.0199 16.0541Z" fill="#D4AF2C"/>
<path fill-rule="evenodd" clip-rule="evenodd" d="M16.2049 14.4353C16.0349 18.176 15.2949 21 14.4049 21C13.5149 21 12.7724 18.176 12.6049 14.4353C8.40492 14.2866 5.23743 13.626 5.23743 12.8341C5.23743 12.04 8.40742 11.3793 12.6049 11.2306C12.7724 7.48997 13.5149 4.66595 14.4049 4.66595C15.2949 4.66595 16.0349 7.48997 16.2049 11.2306C20.4024 11.3793 23.5724 12.04 23.5724 12.8341C23.5724 13.626 20.4024 14.2866 16.2049 14.4353Z" fill="#FFDA2C"/>
<path d="M14.4049 16.334C16.5749 16.334 18.3324 14.7656 18.3324 12.8341C18.3324 10.9003 16.5749 9.33411 14.4049 9.33411C12.2349 9.33411 10.4749 10.9003 10.4749 12.8341C10.4749 14.7656 12.2349 16.334 14.4049 16.334Z" fill="#FFDA2C"/>
</g>
</svg>
