<svg width="1512" height="1975" viewBox="0 0 1512 1975" fill="none" xmlns="http://www.w3.org/2000/svg">
<mask id="mask0_3340_2335" style="mask-type:alpha" maskUnits="userSpaceOnUse" x="-140" y="554" width="1921" height="867">
<rect x="-139.022" y="554.256" width="1920" height="866" fill="url(#paint0_linear_3340_2335)"/>
</mask>
<g mask="url(#mask0_3340_2335)">
<line y1="-0.5" x2="1929" y2="-0.5" transform="matrix(-0.866026 0.5 -0.866025 -0.5 803.298 9.25586)" stroke="#66A3FF" stroke-opacity="0.24"/>
<line y1="-0.5" x2="1929" y2="-0.5" transform="matrix(-0.866025 0.5 -0.866025 -0.5 862.188 43.2559)" stroke="#66A3FF" stroke-opacity="0.24"/>
<line y1="-0.5" x2="1929" y2="-0.5" transform="matrix(-0.866025 0.5 -0.866025 -0.5 921.078 77.2559)" stroke="#66A3FF" stroke-opacity="0.24"/>
<line y1="-0.5" x2="1929" y2="-0.5" transform="matrix(-0.866026 0.5 -0.866025 -0.5 979.968 111.256)" stroke="#66A3FF" stroke-opacity="0.24"/>
<line y1="-0.5" x2="1929" y2="-0.5" transform="matrix(-0.866026 0.5 -0.866025 -0.5 1038.86 145.256)" stroke="#66A3FF" stroke-opacity="0.24"/>
<line y1="-0.5" x2="1929" y2="-0.5" transform="matrix(-0.866026 0.5 -0.866025 -0.5 1097.75 179.256)" stroke="#66A3FF" stroke-opacity="0.24"/>
<line y1="-0.5" x2="1929" y2="-0.5" transform="matrix(-0.866025 0.5 -0.866025 -0.5 1156.64 213.256)" stroke="#66A3FF" stroke-opacity="0.24"/>
<line y1="-0.5" x2="1929" y2="-0.5" transform="matrix(-0.866026 0.5 -0.866025 -0.5 1215.53 247.256)" stroke="#66A3FF" stroke-opacity="0.24"/>
<line y1="-0.5" x2="1929" y2="-0.5" transform="matrix(-0.866026 0.5 -0.866025 -0.5 1274.42 281.256)" stroke="#66A3FF" stroke-opacity="0.24"/>
<line y1="-0.5" x2="1929" y2="-0.5" transform="matrix(-0.866026 0.5 -0.866025 -0.5 1333.31 315.256)" stroke="#66A3FF" stroke-opacity="0.24"/>
<line y1="-0.5" x2="1929" y2="-0.5" transform="matrix(-0.866025 0.5 -0.866025 -0.5 1392.2 349.256)" stroke="#66A3FF" stroke-opacity="0.24"/>
<line y1="-0.5" x2="1929" y2="-0.5" transform="matrix(-0.866025 0.5 -0.866025 -0.5 1451.09 383.256)" stroke="#66A3FF" stroke-opacity="0.24"/>
<line y1="-0.5" x2="1929" y2="-0.5" transform="matrix(-0.866026 0.5 -0.866025 -0.5 1509.98 417.256)" stroke="#66A3FF" stroke-opacity="0.24"/>
<line y1="-0.5" x2="1929" y2="-0.5" transform="matrix(-0.866026 0.5 -0.866025 -0.5 1568.87 451.256)" stroke="#66A3FF" stroke-opacity="0.24"/>
<line y1="-0.5" x2="1929" y2="-0.5" transform="matrix(-0.866026 0.5 -0.866025 -0.5 1627.76 485.256)" stroke="#66A3FF" stroke-opacity="0.24"/>
<line y1="-0.5" x2="1929" y2="-0.5" transform="matrix(-0.866025 0.5 -0.866025 -0.5 1686.65 519.256)" stroke="#66A3FF" stroke-opacity="0.24"/>
<line y1="-0.5" x2="1929" y2="-0.5" transform="matrix(-0.866026 0.5 -0.866025 -0.5 1745.53 553.256)" stroke="#66A3FF" stroke-opacity="0.24"/>
<line y1="-0.5" x2="1929" y2="-0.5" transform="matrix(-0.866026 0.5 -0.866025 -0.5 1804.42 587.256)" stroke="#66A3FF" stroke-opacity="0.24"/>
<line y1="-0.5" x2="1929" y2="-0.5" transform="matrix(-0.866026 0.5 -0.866025 -0.5 1863.31 621.257)" stroke="#66A3FF" stroke-opacity="0.24"/>
<line y1="-0.5" x2="1929" y2="-0.5" transform="matrix(-0.866025 0.5 -0.866025 -0.5 1922.2 655.257)" stroke="#66A3FF" stroke-opacity="0.24"/>
<line y1="-0.5" x2="1929" y2="-0.5" transform="matrix(-0.866025 0.5 -0.866025 -0.5 1981.09 689.257)" stroke="#66A3FF" stroke-opacity="0.24"/>
<line y1="-0.5" x2="1929" y2="-0.5" transform="matrix(-0.866026 0.5 -0.866025 -0.5 2039.98 723.257)" stroke="#66A3FF" stroke-opacity="0.24"/>
<line y1="-0.5" x2="1929" y2="-0.5" transform="matrix(-0.866026 0.5 -0.866025 -0.5 2098.87 757.257)" stroke="#66A3FF" stroke-opacity="0.24"/>
<line y1="-0.5" x2="1929" y2="-0.5" transform="matrix(-0.866026 0.5 -0.866025 -0.5 2157.76 791.257)" stroke="#66A3FF" stroke-opacity="0.24"/>
<line y1="-0.5" x2="1929" y2="-0.5" transform="matrix(-0.866025 0.5 -0.866025 -0.5 2216.65 825.257)" stroke="#66A3FF" stroke-opacity="0.24"/>
<line y1="-0.5" x2="1929" y2="-0.5" transform="matrix(-0.866026 0.5 -0.866025 -0.5 2275.54 859.257)" stroke="#66A3FF" stroke-opacity="0.24"/>
<line y1="-0.5" x2="1929" y2="-0.5" transform="matrix(-0.866026 0.5 -0.866025 -0.5 2334.43 893.257)" stroke="#66A3FF" stroke-opacity="0.24"/>
<line y1="-0.5" x2="1929" y2="-0.5" transform="matrix(-0.866026 0.5 -0.866025 -0.5 2393.32 927.257)" stroke="#66A3FF" stroke-opacity="0.24"/>
<line y1="-0.5" x2="1929" y2="-0.5" transform="matrix(-0.866025 0.5 -0.866025 -0.5 2452.21 961.257)" stroke="#66A3FF" stroke-opacity="0.24"/>
<line y1="-0.5" x2="1929" y2="-0.5" transform="matrix(-0.866025 0.5 -0.866025 -0.5 2511.1 995.257)" stroke="#66A3FF" stroke-opacity="0.24"/>
<line y1="-0.5" x2="2001" y2="-0.5" transform="matrix(0.866025 0.5 -0.866025 0.5 -925.723 1008.51)" stroke="#66A3FF" stroke-opacity="0.24"/>
<line y1="-0.5" x2="2001" y2="-0.5" transform="matrix(0.866025 0.5 -0.866025 0.5 -865.967 974.007)" stroke="#66A3FF" stroke-opacity="0.24"/>
<line y1="-0.5" x2="2001" y2="-0.5" transform="matrix(0.866025 0.5 -0.866025 0.5 -806.211 939.507)" stroke="#66A3FF" stroke-opacity="0.24"/>
<line y1="-0.5" x2="2001" y2="-0.5" transform="matrix(0.866025 0.5 -0.866025 0.5 -746.456 905.007)" stroke="#66A3FF" stroke-opacity="0.24"/>
<line y1="-0.5" x2="2001" y2="-0.5" transform="matrix(0.866025 0.5 -0.866025 0.5 -686.7 870.507)" stroke="#66A3FF" stroke-opacity="0.24"/>
<line y1="-0.5" x2="2001" y2="-0.5" transform="matrix(0.866025 0.5 -0.866025 0.5 -626.944 836.007)" stroke="#66A3FF" stroke-opacity="0.24"/>
<line y1="-0.5" x2="2001" y2="-0.5" transform="matrix(0.866025 0.5 -0.866025 0.5 -567.188 801.507)" stroke="#66A3FF" stroke-opacity="0.24"/>
<line y1="-0.5" x2="2001" y2="-0.5" transform="matrix(0.866025 0.5 -0.866025 0.5 -507.433 767.007)" stroke="#66A3FF" stroke-opacity="0.24"/>
<line y1="-0.5" x2="2001" y2="-0.5" transform="matrix(0.866025 0.5 -0.866025 0.5 -447.677 732.507)" stroke="#66A3FF" stroke-opacity="0.24"/>
<line y1="-0.5" x2="2001" y2="-0.5" transform="matrix(0.866025 0.5 -0.866025 0.5 -387.921 698.007)" stroke="#66A3FF" stroke-opacity="0.24"/>
<line y1="-0.5" x2="2001" y2="-0.5" transform="matrix(0.866025 0.5 -0.866025 0.5 -328.165 663.507)" stroke="#66A3FF" stroke-opacity="0.24"/>
<line y1="-0.5" x2="2001" y2="-0.5" transform="matrix(0.866025 0.5 -0.866025 0.5 -268.41 629.007)" stroke="#66A3FF" stroke-opacity="0.24"/>
<line y1="-0.5" x2="2001" y2="-0.5" transform="matrix(0.866025 0.5 -0.866025 0.5 -208.654 594.507)" stroke="#66A3FF" stroke-opacity="0.24"/>
<line y1="-0.5" x2="2001" y2="-0.5" transform="matrix(0.866025 0.5 -0.866025 0.5 -148.898 560.007)" stroke="#66A3FF" stroke-opacity="0.24"/>
<line y1="-0.5" x2="2001" y2="-0.5" transform="matrix(0.866025 0.5 -0.866025 0.5 -89.1421 525.507)" stroke="#66A3FF" stroke-opacity="0.24"/>
<line y1="-0.5" x2="2001" y2="-0.5" transform="matrix(0.866025 0.5 -0.866025 0.5 -29.3862 491.007)" stroke="#66A3FF" stroke-opacity="0.24"/>
<line y1="-0.5" x2="2001" y2="-0.5" transform="matrix(0.866025 0.5 -0.866025 0.5 30.3696 456.507)" stroke="#66A3FF" stroke-opacity="0.24"/>
<line y1="-0.5" x2="2001" y2="-0.5" transform="matrix(0.866025 0.5 -0.866025 0.5 90.125 422.007)" stroke="#66A3FF" stroke-opacity="0.24"/>
<line y1="-0.5" x2="2001" y2="-0.5" transform="matrix(0.866025 0.5 -0.866025 0.5 149.881 387.507)" stroke="#66A3FF" stroke-opacity="0.24"/>
<line y1="-0.5" x2="2001" y2="-0.5" transform="matrix(0.866025 0.5 -0.866025 0.5 209.637 353.007)" stroke="#66A3FF" stroke-opacity="0.24"/>
<line y1="-0.5" x2="2001" y2="-0.5" transform="matrix(0.866025 0.5 -0.866025 0.5 269.393 318.507)" stroke="#66A3FF" stroke-opacity="0.24"/>
<line y1="-0.5" x2="2001" y2="-0.5" transform="matrix(0.866025 0.5 -0.866025 0.5 329.148 284.007)" stroke="#66A3FF" stroke-opacity="0.24"/>
<line y1="-0.5" x2="2001" y2="-0.5" transform="matrix(0.866025 0.5 -0.866025 0.5 388.904 249.507)" stroke="#66A3FF" stroke-opacity="0.24"/>
<line y1="-0.5" x2="2001" y2="-0.5" transform="matrix(0.866025 0.5 -0.866025 0.5 448.66 215.007)" stroke="#66A3FF" stroke-opacity="0.24"/>
<line y1="-0.5" x2="2001" y2="-0.5" transform="matrix(0.866025 0.5 -0.866025 0.5 508.416 180.507)" stroke="#66A3FF" stroke-opacity="0.24"/>
<line y1="-0.5" x2="2001" y2="-0.5" transform="matrix(0.866025 0.5 -0.866025 0.5 568.171 146.007)" stroke="#66A3FF" stroke-opacity="0.24"/>
<line y1="-0.5" x2="2001" y2="-0.5" transform="matrix(0.866025 0.5 -0.866025 0.5 627.927 111.507)" stroke="#66A3FF" stroke-opacity="0.24"/>
<line y1="-0.5" x2="2001" y2="-0.5" transform="matrix(0.866025 0.5 -0.866025 0.5 687.683 77.0068)" stroke="#66A3FF" stroke-opacity="0.24"/>
<line y1="-0.5" x2="2001" y2="-0.5" transform="matrix(0.866025 0.5 -0.866025 0.5 747.438 42.5068)" stroke="#66A3FF" stroke-opacity="0.24"/>
<line y1="-0.5" x2="2001" y2="-0.5" transform="matrix(0.866025 0.5 -0.866025 0.5 807.194 8.00684)" stroke="#66A3FF" stroke-opacity="0.24"/>
</g>
<defs>
<linearGradient id="paint0_linear_3340_2335" x1="820.978" y1="554.256" x2="820.978" y2="1420.26" gradientUnits="userSpaceOnUse">
<stop stop-color="#C4C4C4" stop-opacity="0"/>
<stop offset="0.526042" stop-color="#C4C4C4"/>
<stop offset="1" stop-color="#C4C4C4" stop-opacity="0"/>
</linearGradient>
</defs>
</svg>
